<svg xmlns="http://www.w3.org/2000/svg" xmlns:xlink="http://www.w3.org/1999/xlink" version="1.0" x="0px" y="0px" viewBox="0 0 100 125" enable-background="new 0 0 100 100" xml:space="preserve">
    <g>
        <path d="M74.245,45.579c-1.087,0-1.924,0.25-2.621,0.612c0.236-0.326,0.377-0.761,0.377-1.363v-3.65 c0-6.75-5.492-12.242-12.242-12.242H39.968c-6.75,0-12.242,5.492-12.242,12.242v3.651c0,0.549,0.202,1.045,0.524,1.438 c-0.726-0.406-1.609-0.688-2.774-0.688c-0.473,0-0.855,0.384-0.855,0.855s0.382,0.855,0.855,0.855c1.686,0,2.512,0.793,3.469,1.711 c0.349,0.335,0.718,0.681,1.132,0.999h-1.509c-1.885,0-3.42,1.534-3.42,3.421v0.818c0,1.599,1.107,2.934,2.591,3.307 c-0.002,0.042-0.013,0.083-0.013,0.126v5.633c0,4.565,3.715,8.28,8.281,8.28H63.72c4.566,0,8.281-3.715,8.281-8.28v-5.633 c0-0.044-0.01-0.085-0.013-0.129c1.48-0.376,2.583-1.708,2.583-3.305v-0.818c0-1.887-1.534-3.421-3.42-3.421h-1.512 c0.415-0.318,0.784-0.664,1.133-0.999c0.958-0.918,1.786-1.711,3.475-1.711c0.473,0,0.855-0.384,0.855-0.855   S74.718,45.579,74.245,45.579z M67.439,63.306c0,2.051-1.668,3.719-3.719,3.719H36.007c-2.051,0-3.719-1.668-3.719-3.719v-3.352   h5.861l3.334,3.334c0.167,0.167,0.387,0.25,0.605,0.25c0.22,0,0.438-0.083,0.605-0.25l3.334-3.334h21.413V63.306z M29.264,46.976   c0.234,0.081,0.482,0.134,0.743,0.134h7.778c-0.25,0.217-0.486,0.44-0.713,0.657c-0.958,0.919-1.784,1.711-3.472,1.711   s-2.514-0.792-3.47-1.711C29.857,47.506,29.573,47.234,29.264,46.976z M32.288,41.178c0-4.235,3.445-7.681,7.68-7.681h19.792   c4.235,0,7.68,3.445,7.68,7.681v1.371c-6.993,0-28.147,0-35.152,0V41.178z M45.667,47.109h8.368   c-0.25,0.218-0.486,0.441-0.713,0.658c-0.958,0.919-1.784,1.711-3.473,1.711c-1.686,0-2.512-0.792-3.469-1.711   C46.152,47.55,45.916,47.327,45.667,47.109z M38.255,49.001c0.957-0.918,1.783-1.711,3.47-1.711s2.514,0.793,3.469,1.711   c0.349,0.335,0.718,0.681,1.132,0.999h-9.203C37.538,49.682,37.907,49.336,38.255,49.001z M51.566,51.995l-0.284,0.284   l-3.102,3.102l-0.012,0.012l-1.128,1.128l-1.14,1.14l-0.013,0.013l-2.282,2.281l-1.519,1.519l-1.519-1.519l-2.281-2.281   l-0.013-0.013l-1.14-1.14l-1.128-1.128l-0.012-0.012l-3.102-3.102l-0.284-0.284H51.566z M53.373,50   c0.415-0.318,0.784-0.664,1.132-0.999c0.957-0.918,1.784-1.711,3.472-1.711c1.69,0,2.518,0.793,3.476,1.711   c0.349,0.335,0.718,0.681,1.132,0.999H53.373z M62.636,47.768c-0.227-0.218-0.464-0.44-0.715-0.659h6.092   c0.941,0,1.85-0.01,2.566-0.231c-0.358,0.289-0.684,0.594-0.993,0.891c-0.958,0.919-1.786,1.711-3.476,1.711   C64.422,49.479,63.594,48.687,62.636,47.768z"/><path d="M38.182,36.429c-0.334,0.334-0.334,0.876,0,1.21c0.167,0.167,0.385,0.25,0.605,0.25c0.218,0,0.438-0.083,0.605-0.25   l0.003-0.003c0.334-0.334,0.333-0.875-0.001-1.209C39.058,36.093,38.516,36.095,38.182,36.429z"/><path d="M35.847,38.764c-0.334,0.334-0.334,0.876,0,1.21c0.167,0.167,0.385,0.25,0.605,0.25c0.218,0,0.438-0.083,0.605-0.25   l0.003-0.003c0.334-0.334,0.333-0.875-0.001-1.209S36.183,38.431,35.847,38.764z"/><path d="M40.624,38.87c-0.334,0.334-0.334,0.876,0,1.21c0.167,0.167,0.385,0.251,0.605,0.251c0.218,0,0.438-0.084,0.605-0.251   l0.003-0.003c0.334-0.334,0.333-0.874-0.001-1.208S40.959,38.538,40.624,38.87z"/>
    </g>
</svg>